<svg xmlns="http://www.w3.org/2000/svg" viewBox="-498 -1002 996 265"><!-- anneaux-anneau : dessiné par l'outil de plans (scripts/extraire-moteur-garde-corps.mjs), ne pas modifier à la main. --><polygon fill="#2b2320" points="-494,-740 495,-740 495,-756 -494,-756"/><polygon fill="#2b2320" points="-494,-983 495,-983 495,-999 -494,-999"/><polygon fill="#2b2320" points="-410,-756 -394,-756 -394,-983 -410,-983"/><polygon fill="#2b2320" points="394,-756 410,-756 410,-983 394,-983"/><polygon fill="#2b2320" points="-295,-756 -279,-756 -279,-983 -295,-983"/><polygon fill="#2b2320" points="-180,-756 -164,-756 -164,-983 -180,-983"/><polygon fill="#2b2320" points="-65,-756 -49,-756 -49,-983 -65,-983"/><polygon fill="#2b2320" points="49,-756 65,-756 65,-983 49,-983"/><polygon fill="#2b2320" points="164,-756 180,-756 180,-983 164,-983"/><polygon fill="#2b2320" points="279,-756 295,-756 295,-983 279,-983"/><polygon fill="#2b2320" points="-394,-852 394,-852 394,-882 -394,-882"/><polygon fill="#2b2320" points="-293,-932 -296,-915 -299,-907 -308,-896 -315,-890 -322,-886 -336,-881 -354,-881 -367,-886 -381,-896 -389,-907 -393,-915 -396,-933 -396,-942 -389,-958 -381,-969 -367,-980 -354,-984 -336,-984 -327,-981 -319,-977 -308,-969 -298,-955 -293,-942 -293,-933 -300,-932 -302,-948 -308,-958 -316,-967 -329,-975 -345,-977 -352,-977 -363,-973 -370,-969 -379,-962 -387,-948 -389,-940 -389,-925 -383,-910 -379,-904 -370,-896 -363,-892 -352,-888 -337,-888 -329,-890 -319,-896 -313,-901 -306,-910 -300,-925 -300,-933"/><polygon fill="#2b2320" points="-178,-932 -181,-915 -185,-907 -193,-896 -200,-890 -212,-884 -221,-881 -239,-881 -252,-886 -266,-896 -272,-903 -280,-919 -282,-933 -278,-950 -275,-958 -266,-969 -252,-980 -239,-984 -221,-984 -212,-981 -200,-975 -187,-962 -181,-950 -179,-942 -178,-933 -185,-932 -187,-948 -193,-958 -204,-969 -214,-975 -230,-977 -237,-977 -245,-975 -255,-969 -264,-962 -272,-948 -275,-933 -274,-925 -270,-914 -266,-907 -255,-896 -249,-892 -237,-888 -222,-888 -211,-892 -204,-896 -198,-901 -191,-910 -185,-925 -185,-933"/><polygon fill="#2b2320" points="-63,-932 -66,-915 -70,-907 -78,-896 -85,-890 -97,-884 -106,-881 -124,-881 -137,-886 -152,-896 -157,-903 -165,-919 -167,-933 -164,-950 -160,-958 -151,-969 -137,-980 -124,-984 -106,-984 -97,-981 -89,-977 -78,-969 -68,-955 -64,-942 -63,-933 -70,-932 -73,-948 -78,-958 -86,-967 -99,-975 -115,-977 -123,-977 -134,-973 -141,-969 -149,-962 -157,-948 -160,-933 -159,-925 -156,-914 -152,-907 -141,-896 -134,-892 -123,-888 -107,-888 -96,-892 -89,-896 -83,-901 -76,-910 -71,-925 -70,-933"/><polygon fill="#2b2320" points="52,-932 49,-915 45,-907 37,-896 30,-890 18,-884 9,-881 -9,-881 -22,-886 -37,-896 -42,-903 -50,-919 -52,-933 -49,-950 -45,-958 -37,-969 -22,-980 -9,-984 9,-984 18,-981 26,-977 37,-969 47,-955 51,-942 52,-933 45,-932 42,-948 37,-958 29,-967 15,-975 0,-977 -8,-977 -19,-973 -26,-969 -34,-962 -42,-948 -45,-933 -44,-925 -41,-914 -37,-907 -26,-896 -19,-892 -8,-888 8,-888 19,-892 26,-896 32,-901 39,-910 44,-925 45,-933"/><polygon fill="#2b2320" points="167,-932 164,-915 160,-907 152,-896 145,-890 133,-884 124,-881 106,-881 93,-886 78,-896 72,-903 66,-915 63,-933 64,-942 70,-958 78,-969 93,-980 106,-984 124,-984 133,-981 145,-975 157,-962 164,-950 166,-942 167,-933 160,-932 157,-948 152,-958 141,-969 130,-975 115,-977 107,-977 96,-973 89,-969 81,-962 73,-948 71,-940 71,-925 74,-914 78,-907 89,-896 96,-892 107,-888 123,-888 134,-892 141,-896 147,-901 154,-910 159,-925 160,-933"/><polygon fill="#2b2320" points="282,-932 279,-915 275,-907 266,-896 260,-890 252,-886 239,-881 221,-881 208,-886 193,-896 185,-907 181,-915 178,-933 179,-942 185,-958 193,-969 208,-980 221,-984 239,-984 248,-981 256,-977 267,-969 277,-955 281,-942 282,-933 275,-932 272,-948 267,-958 259,-967 245,-975 230,-977 222,-977 211,-973 204,-969 195,-962 188,-948 186,-940 186,-925 191,-910 195,-904 204,-896 211,-892 222,-888 238,-888 245,-890 256,-896 262,-901 269,-910 274,-925 275,-933"/><polygon fill="#2b2320" points="397,-932 393,-915 390,-907 381,-896 374,-890 367,-886 354,-881 336,-881 323,-886 308,-896 300,-907 296,-915 293,-933 293,-942 300,-958 308,-969 323,-980 336,-984 354,-984 362,-981 371,-977 381,-969 392,-955 396,-942 397,-933 390,-932 387,-948 381,-958 374,-967 360,-975 345,-977 337,-977 326,-973 319,-969 310,-962 302,-948 300,-940 300,-925 306,-910 310,-904 319,-896 326,-892 337,-888 352,-888 360,-890 370,-896 376,-901 383,-910 389,-925 390,-933"/></svg>
