<svg xmlns="http://www.w3.org/2000/svg" viewBox="-498 -1002 996 265"><!-- entre-C : dessiné par l'outil de plans (scripts/extraire-moteur-garde-corps.mjs), ne pas modifier à la main. --><polygon fill="#2b2320" points="-494,-740 495,-740 495,-756 -494,-756"/><polygon fill="#2b2320" points="-494,-983 495,-983 495,-999 -494,-999"/><polygon fill="#2b2320" points="-410,-756 -394,-756 -394,-983 -410,-983"/><polygon fill="#2b2320" points="394,-756 410,-756 410,-983 394,-983"/><polygon fill="#2b2320" points="-309,-756 -293,-756 -293,-983 -309,-983"/><polygon fill="#2b2320" points="-209,-756 -193,-756 -193,-983 -209,-983"/><polygon fill="#2b2320" points="-108,-756 -92,-756 -92,-983 -108,-983"/><polygon fill="#2b2320" points="-8,-756 8,-756 8,-983 -8,-983"/><polygon fill="#2b2320" points="93,-756 109,-756 109,-983 93,-983"/><polygon fill="#2b2320" points="193,-756 209,-756 209,-983 193,-983"/><polygon fill="#2b2320" points="294,-756 310,-756 310,-983 294,-983"/><polygon fill="#2b2320" points="-359,-925 -368,-926 -377,-932 -381,-941 -379,-952 -377,-957 -368,-964 -357,-966 -347,-962 -342,-959 -335,-949 -334,-936 -336,-928 -340,-921 -346,-916 -354,-912 -363,-911 -370,-911 -378,-914 -385,-919 -391,-925 -394,-932 -396,-940 -396,-949 -394,-957 -391,-963 -386,-970 -380,-976 -373,-979 -357,-982 -349,-982 -341,-979 -333,-975 -326,-969 -320,-961 -311,-943 -307,-920 -307,-893 -309,-881 -315,-861 -320,-853 -326,-845 -333,-839 -341,-834 -349,-832 -357,-831 -366,-832 -380,-838 -386,-843 -391,-850 -394,-857 -396,-865 -396,-873 -394,-881 -391,-888 -385,-895 -378,-899 -370,-902 -363,-903 -354,-902 -346,-898 -340,-892 -336,-886 -334,-878 -334,-869 -337,-860 -342,-855 -352,-849 -363,-848 -373,-853 -379,-861 -381,-872 -377,-882 -373,-885 -368,-888 -359,-888 -359,-885 -367,-884 -373,-879 -375,-876 -376,-867 -372,-860 -365,-856 -358,-855 -350,-857 -343,-864 -341,-873 -342,-883 -345,-888 -350,-892 -356,-895 -369,-895 -375,-893 -380,-889 -388,-879 -389,-872 -389,-866 -385,-854 -376,-844 -370,-840 -357,-838 -344,-841 -337,-845 -325,-857 -318,-873 -314,-894 -314,-920 -318,-941 -325,-957 -337,-969 -350,-975 -364,-975 -376,-970 -385,-960 -389,-948 -389,-941 -388,-934 -380,-924 -375,-920 -369,-918 -356,-919 -350,-921 -345,-926 -342,-931 -341,-937 -341,-943 -343,-949 -347,-954 -354,-958 -362,-958 -369,-956 -374,-950 -376,-942 -373,-934 -367,-929 -359,-929"/><circle fill="#2b2320" cx="-359" cy="-927" r="4"/><circle fill="#2b2320" cx="-359" cy="-887" r="4"/><polygon fill="#2b2320" points="-244,-929 -236,-929 -230,-934 -227,-942 -229,-950 -234,-956 -241,-958 -249,-958 -256,-954 -260,-949 -262,-943 -262,-937 -260,-931 -257,-926 -253,-921 -247,-919 -234,-918 -228,-920 -222,-924 -215,-934 -214,-941 -214,-948 -218,-960 -227,-970 -239,-975 -253,-975 -266,-969 -278,-957 -285,-941 -289,-920 -289,-894 -285,-873 -278,-857 -266,-845 -259,-841 -246,-838 -233,-840 -227,-844 -218,-854 -214,-866 -214,-872 -215,-879 -222,-889 -228,-893 -234,-895 -247,-895 -253,-892 -257,-888 -260,-883 -262,-873 -260,-864 -253,-857 -245,-855 -238,-856 -231,-860 -227,-867 -228,-876 -230,-879 -236,-884 -244,-885 -244,-888 -235,-888 -230,-885 -226,-882 -222,-872 -224,-861 -230,-853 -240,-848 -251,-849 -261,-855 -266,-860 -269,-869 -269,-878 -267,-886 -263,-892 -256,-898 -249,-902 -240,-903 -233,-902 -225,-899 -218,-895 -212,-888 -209,-881 -207,-873 -207,-865 -208,-857 -212,-850 -217,-843 -223,-838 -237,-832 -246,-831 -254,-832 -262,-834 -270,-839 -277,-845 -283,-853 -288,-861 -294,-881 -296,-893 -296,-920 -292,-943 -283,-961 -277,-969 -270,-975 -262,-979 -254,-982 -246,-982 -230,-979 -223,-976 -217,-970 -212,-963 -208,-957 -207,-949 -207,-940 -209,-932 -212,-925 -218,-919 -225,-914 -233,-911 -240,-911 -249,-912 -256,-916 -263,-921 -267,-928 -269,-936 -268,-949 -261,-959 -256,-962 -246,-966 -235,-964 -226,-957 -224,-952 -222,-941 -226,-932 -235,-926 -244,-925"/><circle fill="#2b2320" cx="-244" cy="-927" r="4"/><circle fill="#2b2320" cx="-244" cy="-887" r="4"/><polygon fill="#2b2320" points="-158,-925 -167,-926 -176,-932 -180,-941 -178,-952 -176,-957 -167,-964 -156,-966 -146,-962 -141,-959 -134,-949 -133,-936 -135,-928 -139,-921 -145,-916 -153,-912 -162,-911 -169,-911 -177,-914 -184,-919 -190,-925 -193,-932 -195,-940 -195,-949 -193,-957 -190,-963 -185,-970 -179,-976 -172,-979 -156,-982 -148,-982 -140,-979 -132,-975 -125,-969 -119,-961 -110,-943 -106,-920 -106,-893 -108,-881 -114,-861 -119,-853 -125,-845 -132,-839 -140,-834 -148,-832 -156,-831 -165,-832 -179,-838 -185,-843 -190,-850 -193,-857 -195,-865 -195,-873 -193,-881 -190,-888 -184,-895 -177,-899 -169,-902 -162,-903 -153,-902 -145,-898 -139,-892 -135,-886 -133,-878 -133,-869 -136,-860 -141,-855 -151,-849 -162,-848 -172,-853 -178,-861 -180,-872 -176,-882 -172,-885 -167,-888 -158,-888 -158,-885 -166,-884 -172,-879 -174,-876 -175,-867 -171,-860 -164,-856 -157,-855 -149,-857 -142,-864 -140,-873 -141,-883 -144,-888 -149,-892 -155,-895 -168,-895 -174,-893 -179,-889 -187,-879 -188,-872 -188,-866 -184,-854 -175,-844 -169,-840 -156,-838 -143,-841 -136,-845 -124,-857 -117,-873 -113,-894 -113,-920 -117,-941 -124,-957 -136,-969 -149,-975 -163,-975 -175,-970 -184,-960 -188,-948 -188,-941 -187,-934 -179,-924 -174,-920 -168,-918 -155,-919 -149,-921 -144,-926 -141,-931 -140,-937 -140,-943 -142,-949 -146,-954 -153,-958 -161,-958 -168,-956 -173,-950 -175,-942 -172,-934 -166,-929 -158,-929"/><circle fill="#2b2320" cx="-158" cy="-927" r="4"/><circle fill="#2b2320" cx="-158" cy="-887" r="4"/><polygon fill="#2b2320" points="-43,-929 -35,-929 -29,-934 -26,-942 -28,-950 -33,-956 -40,-958 -48,-958 -55,-954 -59,-949 -61,-943 -61,-937 -59,-931 -56,-926 -52,-921 -46,-919 -33,-918 -27,-920 -21,-924 -14,-934 -13,-941 -13,-948 -17,-960 -26,-970 -38,-975 -52,-975 -65,-969 -77,-957 -84,-941 -88,-920 -88,-894 -84,-873 -77,-857 -65,-845 -58,-841 -45,-838 -32,-840 -26,-844 -17,-854 -13,-866 -13,-872 -14,-879 -21,-889 -27,-893 -33,-895 -46,-895 -52,-892 -56,-888 -59,-883 -61,-873 -59,-864 -52,-857 -44,-855 -37,-856 -30,-860 -26,-867 -27,-876 -29,-879 -35,-884 -43,-885 -43,-888 -34,-888 -29,-885 -25,-882 -21,-872 -23,-861 -29,-853 -39,-848 -50,-849 -60,-855 -65,-860 -68,-869 -68,-878 -66,-886 -62,-892 -55,-898 -48,-902 -39,-903 -32,-902 -24,-899 -17,-895 -11,-888 -8,-881 -6,-873 -6,-865 -7,-857 -11,-850 -16,-843 -22,-838 -36,-832 -45,-831 -53,-832 -61,-834 -69,-839 -76,-845 -82,-853 -87,-861 -93,-881 -95,-893 -95,-920 -91,-943 -82,-961 -76,-969 -69,-975 -61,-979 -53,-982 -45,-982 -29,-979 -22,-976 -16,-970 -11,-963 -7,-957 -6,-949 -6,-940 -8,-932 -11,-925 -17,-919 -24,-914 -32,-911 -39,-911 -48,-912 -55,-916 -62,-921 -66,-928 -68,-936 -67,-949 -60,-959 -55,-962 -45,-966 -34,-964 -25,-957 -23,-952 -21,-941 -25,-932 -34,-926 -43,-925"/><circle fill="#2b2320" cx="-43" cy="-927" r="4"/><circle fill="#2b2320" cx="-43" cy="-887" r="4"/><polygon fill="#2b2320" points="43,-925 34,-926 25,-932 21,-941 23,-952 25,-957 34,-964 45,-966 55,-962 60,-959 67,-949 68,-936 66,-928 62,-921 56,-916 48,-912 39,-911 32,-911 24,-914 17,-919 11,-925 8,-932 6,-940 6,-949 8,-957 11,-963 16,-970 22,-976 29,-979 45,-982 53,-982 61,-979 69,-975 76,-969 82,-961 91,-943 95,-920 95,-893 93,-881 87,-861 82,-853 76,-845 69,-839 61,-834 53,-832 45,-831 36,-832 22,-838 16,-843 11,-850 8,-857 6,-865 6,-873 8,-881 11,-888 17,-895 24,-899 32,-902 39,-903 48,-902 56,-898 62,-892 66,-886 68,-878 68,-869 65,-860 60,-855 50,-849 39,-848 29,-853 23,-861 21,-872 25,-882 29,-885 34,-888 43,-888 43,-885 35,-884 29,-879 27,-876 26,-867 30,-860 37,-856 44,-855 52,-857 59,-864 61,-873 60,-883 57,-888 52,-892 46,-895 33,-895 27,-893 22,-889 14,-879 13,-872 13,-866 17,-854 26,-844 32,-840 45,-838 58,-841 65,-845 77,-857 84,-873 88,-894 88,-920 84,-941 77,-957 65,-969 52,-975 38,-975 26,-970 17,-960 13,-948 13,-941 14,-934 22,-924 27,-920 33,-918 46,-919 52,-921 57,-926 60,-931 61,-937 61,-943 59,-949 55,-954 48,-958 40,-958 33,-956 28,-950 26,-942 29,-934 35,-929 43,-929"/><circle fill="#2b2320" cx="43" cy="-927" r="4"/><circle fill="#2b2320" cx="43" cy="-887" r="4"/><polygon fill="#2b2320" points="158,-929 166,-929 172,-934 175,-942 173,-950 168,-956 161,-958 153,-958 146,-954 142,-949 140,-943 140,-937 142,-931 145,-926 149,-921 155,-919 168,-918 174,-920 180,-924 187,-934 188,-941 188,-948 184,-960 175,-970 163,-975 149,-975 136,-969 124,-957 117,-941 113,-920 113,-894 117,-873 124,-857 136,-845 143,-841 156,-838 169,-840 175,-844 184,-854 188,-866 188,-872 187,-879 180,-889 174,-893 168,-895 155,-895 149,-892 145,-888 142,-883 140,-873 142,-864 149,-857 157,-855 164,-856 171,-860 175,-867 174,-876 172,-879 166,-884 158,-885 158,-888 167,-888 172,-885 176,-882 180,-872 178,-861 172,-853 162,-848 151,-849 141,-855 136,-860 133,-869 133,-878 135,-886 139,-892 146,-898 153,-902 162,-903 169,-902 177,-899 184,-895 190,-888 193,-881 195,-873 195,-865 194,-857 190,-850 185,-843 179,-838 165,-832 156,-831 148,-832 140,-834 132,-839 125,-845 119,-853 114,-861 108,-881 106,-893 106,-920 110,-943 119,-961 125,-969 132,-975 140,-979 148,-982 156,-982 172,-979 179,-976 185,-970 190,-963 194,-957 195,-949 195,-940 193,-932 190,-925 184,-919 177,-914 169,-911 162,-911 153,-912 146,-916 139,-921 135,-928 133,-936 134,-949 141,-959 146,-962 156,-966 167,-964 176,-957 178,-952 180,-941 176,-932 167,-926 158,-925"/><circle fill="#2b2320" cx="158" cy="-927" r="4"/><circle fill="#2b2320" cx="158" cy="-887" r="4"/><polygon fill="#2b2320" points="244,-925 235,-926 226,-932 222,-941 224,-952 226,-957 235,-964 246,-966 256,-962 261,-959 268,-949 269,-936 267,-928 263,-921 257,-916 249,-912 240,-911 233,-911 225,-914 218,-919 212,-925 209,-932 207,-940 207,-949 209,-957 212,-963 217,-970 223,-976 230,-979 246,-982 254,-982 262,-979 270,-975 277,-969 283,-961 292,-943 296,-920 296,-893 294,-881 288,-861 283,-853 277,-845 270,-839 262,-834 254,-832 246,-831 237,-832 223,-838 217,-843 212,-850 209,-857 207,-865 207,-873 209,-881 212,-888 218,-895 225,-899 233,-902 240,-903 249,-902 257,-898 263,-892 267,-886 269,-878 269,-869 266,-860 261,-855 251,-849 240,-848 230,-853 224,-861 222,-872 226,-882 230,-885 235,-888 244,-888 244,-885 236,-884 230,-879 228,-876 227,-867 231,-860 238,-856 245,-855 253,-857 260,-864 262,-873 261,-883 258,-888 253,-892 247,-895 234,-895 228,-893 223,-889 215,-879 214,-872 214,-866 218,-854 227,-844 233,-840 246,-838 259,-841 266,-845 278,-857 285,-873 289,-894 289,-920 285,-941 278,-957 266,-969 253,-975 239,-975 227,-970 218,-960 214,-948 214,-941 215,-934 223,-924 228,-920 234,-918 247,-919 253,-921 258,-926 261,-931 262,-937 262,-943 260,-949 256,-954 249,-958 241,-958 234,-956 229,-950 227,-942 230,-934 236,-929 244,-929"/><circle fill="#2b2320" cx="244" cy="-927" r="4"/><circle fill="#2b2320" cx="244" cy="-887" r="4"/><polygon fill="#2b2320" points="359,-929 367,-929 373,-934 376,-942 374,-950 369,-956 362,-958 354,-958 347,-954 343,-949 341,-943 341,-937 343,-931 346,-926 350,-921 356,-919 369,-918 375,-920 381,-924 388,-934 389,-941 389,-948 385,-960 376,-970 364,-975 350,-975 337,-969 325,-957 318,-941 314,-920 314,-894 318,-873 325,-857 337,-845 344,-841 357,-838 370,-840 376,-844 385,-854 389,-866 389,-872 388,-879 381,-889 375,-893 369,-895 356,-895 350,-892 346,-888 343,-883 341,-873 343,-864 350,-857 358,-855 365,-856 372,-860 376,-867 375,-876 373,-879 367,-884 359,-885 359,-888 368,-888 373,-885 377,-882 381,-872 379,-861 373,-853 363,-848 352,-849 342,-855 337,-860 334,-869 334,-878 336,-886 340,-892 347,-898 354,-902 363,-903 370,-902 378,-899 385,-895 391,-888 394,-881 396,-873 396,-865 395,-857 391,-850 386,-843 380,-838 366,-832 357,-831 349,-832 341,-834 333,-839 326,-845 320,-853 315,-861 309,-881 307,-893 307,-920 311,-943 320,-961 326,-969 333,-975 341,-979 349,-982 357,-982 373,-979 380,-976 386,-970 391,-963 395,-957 396,-949 396,-940 394,-932 391,-925 385,-919 378,-914 370,-911 363,-911 354,-912 347,-916 340,-921 336,-928 334,-936 335,-949 342,-959 347,-962 357,-966 368,-964 377,-957 379,-952 381,-941 377,-932 368,-926 359,-925"/><circle fill="#2b2320" cx="359" cy="-927" r="4"/><circle fill="#2b2320" cx="359" cy="-887" r="4"/></svg>
